# xmcd CD database file
#
# Track frame offsets:
#	150
#	16736
#	43945
#	72322
#	98699
#	122324
#	146977
#	169429
#	196046
#	216810
#
# Disc length: 3191 seconds
#
# Revision: 0
# Processed by: cddbd v1.5.2PL0 Copyright (c) Steve Scherf et al.
# Submitted via: CDex 1.70beta2
#
DISCID=8b0c750a
DTITLE=Larry Harlow - Yo Soy Latino
DYEAR=1982
DGENRE=Salsa
TTITLE0=Yo Soy Latino
TTITLE1=Ametralladora
TTITLE2=Guarija Simale
TTITLE3=Mango Del Monte
TTITLE4=Amor Que Sone
TTITLE5=Yo Soy Asi
TTITLE6=Desencanto - Precepada
TTITLE7=Anoche Aprendi
TTITLE8=De Pescado Nada
TTITLE9=Chiquita Y Gordita
EXTD=YEAR: 1982
EXTT0=
EXTT1=
EXTT2=
EXTT3=
EXTT4=
EXTT5=
EXTT6=
EXTT7=
EXTT8=
EXTT9=
PLAYORDER=
